<svg width="17" height="17" xmlns="http://www.w3.org/2000/svg" xmlns:xlink="http://www.w3.org/1999/xlink" xml:space="preserve" overflow="hidden"><g><path d="M14.5385 4.05521 13.2812 3.71875 12.9448 2.46146 14.5385 0.867708C13.5823 0.513542 12.5198 0.708333 11.7583 1.39896 11.0146 2.08958 10.6958 3.13438 10.9792 4.10833L4.10833 10.9792C3.13438 10.7135 2.08958 11.0323 1.41667 11.776 0.74375 12.5198 0.53125 13.5823 0.885417 14.5385L2.47917 12.9448 3.71875 13.2812 4.05521 14.5385 2.46146 16.1323C3.41771 16.4865 4.48021 16.2917 5.24167 15.601 5.98542 14.9104 6.30417 13.8656 6.02083 12.8917L12.8917 6.02083C13.8656 6.28646 14.9104 5.96771 15.5833 5.22396 16.2563 4.48021 16.4688 3.41771 16.1146 2.46146L14.5385 4.05521Z" fill="#A02B93"/></g></svg>